<svg xmlns="http://www.w3.org/2000/svg" width="512" height="512" viewBox="0 0 100 100" preserveAspectRatio="xMidYMid meet" role="img" aria-label="Square rocket icon (inverted)">
  <!-- White square background -->
  <rect width="100" height="100" fill="#FFFFFF"/>

  <!-- Mark padded 5% on each side -->
  <g transform="translate(5,5) scale(0.90)" fill="#000000">
    <path d="M95.131,5.804c0,0-5.228-0.901-12.438,6.31l3.064,3.064l3.064,3.064C96.032,11.031,95.131,5.804,95.131,5.804z"/>
    <rect x="79.944" y="15.797" transform="matrix(0.7071 0.7071 -0.7071 0.7071 36.4628 -54.7146)" width="8.668" height="1.72"/>
    <rect x="63.039" y="11.641" transform="matrix(0.7071 0.7071 -0.7071 0.7071 43.4649 -37.8095)" width="8.668" height="43.842"/>
    <polygon points="55.771,37.592 46.277,39.033 42.53,42.78 46.557,46.807"/>
    <polygon points="63.283,45.104 61.842,54.598 58.095,58.345 54.068,54.318"/>
    <path d="M53.809,91.962c1.237-1.818,1.963-4.014,1.963-6.38c0-6.271-5.084-11.355-11.355-11.355c-0.757,0-1.496,0.078-2.211,0.219  c-0.595-1.853-1.965-3.356-3.728-4.133c0.12-0.19,0.232-0.389,0.355-0.577c6.311-9.68,15.235-16.545,15.235-16.545l-3.037-3.038  l-0.309-0.308l-3.037-3.038c0,0-6.255,8.133-15.242,14.36c-3.273,2.269-6.906,4.286-10.735,5.563c0,0-8.088-5.931-13.902,2.751  c0,0-2.859-2.37-5.89-2.025v30.628H23.25h10.2H52.5v-0.13c1.862-0.387,3.239-1.674,3.239-3.218  C55.739,93.582,54.974,92.564,53.809,91.962z"/>
  </g>
</svg>